<mxfile host="Electron" modified="2023-09-14T15:39:05.560Z" agent="Mozilla/5.0 (Windows NT 10.0; Win64; x64) AppleWebKit/537.36 (KHTML, like Gecko) draw.io/21.6.8 Chrome/114.0.5735.289 Electron/25.5.0 Safari/537.36" etag="JEy1eaFKopbjgqDMXkgy" version="21.6.8" type="device">
  <diagram name="Page-1" id="QjFDpRNbUzlzLMFdxS1M">
    <mxGraphModel dx="989" dy="582" grid="1" gridSize="10" guides="1" tooltips="1" connect="1" arrows="1" fold="1" page="1" pageScale="1" pageWidth="827" pageHeight="1169" math="0" shadow="0">
      <root>
        <mxCell id="0" />
        <mxCell id="1" parent="0" />
        <mxCell id="21pwXV84BtVsFDL-WHwK-1" value="FORMAT" style="rounded=0;whiteSpace=wrap;html=1;shadow=0;comic=0;strokeOpacity=100;strokeColor=default;strokeWidth=1.2;" parent="1" vertex="1">
          <mxGeometry x="110" y="500" width="70" height="20" as="geometry" />
        </mxCell>
        <mxCell id="21pwXV84BtVsFDL-WHwK-2" value="&lt;font style=&quot;font-size: 12px;&quot;&gt;string&lt;/font&gt;" style="rounded=1;whiteSpace=wrap;html=1;arcSize=50;shadow=0;comic=0;strokeOpacity=100;strokeColor=default;strokeWidth=1.2;" parent="1" vertex="1">
          <mxGeometry x="190" y="500" width="60" height="20" as="geometry" />
        </mxCell>
        <mxCell id="21pwXV84BtVsFDL-WHwK-3" value="NULL" style="rounded=0;whiteSpace=wrap;html=1;shadow=0;comic=0;strokeOpacity=100;strokeColor=default;strokeWidth=1.2;" parent="1" vertex="1">
          <mxGeometry x="290" y="500" width="40" height="20" as="geometry" />
        </mxCell>
        <mxCell id="21pwXV84BtVsFDL-WHwK-4" value="ON" style="rounded=0;whiteSpace=wrap;html=1;shadow=0;comic=0;strokeOpacity=100;strokeColor=default;strokeWidth=1.2;" parent="1" vertex="1">
          <mxGeometry x="340" y="500" width="30" height="20" as="geometry" />
        </mxCell>
        <mxCell id="21pwXV84BtVsFDL-WHwK-5" value="ERROR" style="rounded=0;whiteSpace=wrap;html=1;shadow=0;comic=0;strokeOpacity=100;strokeColor=default;strokeWidth=1.2;" parent="1" vertex="1">
          <mxGeometry x="380" y="500" width="60" height="20" as="geometry" />
        </mxCell>
        <mxCell id="21pwXV84BtVsFDL-WHwK-6" value="" style="endArrow=none;html=1;exitX=1;exitY=0.5;exitDx=0;exitDy=0;entryX=0;entryY=0.5;entryDx=0;entryDy=0;strokeOpacity=100;shadow=0;strokeColor=default;strokeWidth=1.2;" parent="1" source="21pwXV84BtVsFDL-WHwK-1" target="21pwXV84BtVsFDL-WHwK-2" edge="1">
          <mxGeometry width="50" height="50" relative="1" as="geometry">
            <mxPoint x="214" y="440" as="sourcePoint" />
            <mxPoint x="264" y="390" as="targetPoint" />
          </mxGeometry>
        </mxCell>
        <mxCell id="21pwXV84BtVsFDL-WHwK-7" value="" style="endArrow=open;html=1;endFill=0;strokeOpacity=100;shadow=0;strokeColor=default;strokeWidth=1.2;" parent="1" edge="1">
          <mxGeometry width="50" height="50" relative="1" as="geometry">
            <mxPoint x="80" y="540" as="sourcePoint" />
            <mxPoint x="480" y="540" as="targetPoint" />
          </mxGeometry>
        </mxCell>
        <mxCell id="21pwXV84BtVsFDL-WHwK-8" value="" style="edgeStyle=elbowEdgeStyle;elbow=horizontal;endArrow=none;html=1;endSize=8;startSize=8;endFill=0;entryX=0;entryY=0.5;entryDx=0;entryDy=0;curved=1;strokeOpacity=100;shadow=0;strokeColor=default;strokeWidth=1.2;" parent="1" target="21pwXV84BtVsFDL-WHwK-3" edge="1">
          <mxGeometry width="50" height="50" relative="1" as="geometry">
            <mxPoint x="270" y="540" as="sourcePoint" />
            <mxPoint x="288" y="510" as="targetPoint" />
            <Array as="points">
              <mxPoint x="280" y="530" />
            </Array>
          </mxGeometry>
        </mxCell>
        <mxCell id="21pwXV84BtVsFDL-WHwK-9" value="" style="endArrow=none;html=1;exitX=1;exitY=0.5;exitDx=0;exitDy=0;entryX=0;entryY=0.5;entryDx=0;entryDy=0;strokeOpacity=100;shadow=0;strokeColor=default;strokeWidth=1.2;" parent="1" source="21pwXV84BtVsFDL-WHwK-3" target="21pwXV84BtVsFDL-WHwK-4" edge="1">
          <mxGeometry width="50" height="50" relative="1" as="geometry">
            <mxPoint x="208" y="530" as="sourcePoint" />
            <mxPoint x="258" y="480" as="targetPoint" />
          </mxGeometry>
        </mxCell>
        <mxCell id="21pwXV84BtVsFDL-WHwK-10" value="" style="endArrow=none;html=1;exitX=1;exitY=0.5;exitDx=0;exitDy=0;entryX=0;entryY=0.5;entryDx=0;entryDy=0;strokeOpacity=100;shadow=0;strokeColor=default;strokeWidth=1.2;" parent="1" source="21pwXV84BtVsFDL-WHwK-4" target="21pwXV84BtVsFDL-WHwK-5" edge="1">
          <mxGeometry width="50" height="50" relative="1" as="geometry">
            <mxPoint x="208" y="530" as="sourcePoint" />
            <mxPoint x="258" y="480" as="targetPoint" />
          </mxGeometry>
        </mxCell>
        <mxCell id="21pwXV84BtVsFDL-WHwK-12" value="" style="endArrow=open;html=1;endFill=0;sourcePerimeterSpacing=0;targetPerimeterSpacing=0;jumpSize=6;shadow=0;comic=0;entryX=0;entryY=0.5;entryDx=0;entryDy=0;strokeOpacity=100;strokeColor=default;strokeWidth=1.2;" parent="1" edge="1">
          <mxGeometry width="50" height="50" relative="1" as="geometry">
            <mxPoint x="68" y="540" as="sourcePoint" />
            <mxPoint x="89" y="540" as="targetPoint" />
          </mxGeometry>
        </mxCell>
        <mxCell id="pvuX36Qv3YyejVooDSa5-2" value="" style="edgeStyle=elbowEdgeStyle;elbow=horizontal;endArrow=none;html=1;endSize=8;startSize=8;endFill=0;entryX=0;entryY=0.5;entryDx=0;entryDy=0;curved=1;strokeOpacity=100;shadow=0;strokeColor=default;strokeWidth=1.2;" edge="1" parent="1">
          <mxGeometry width="50" height="50" relative="1" as="geometry">
            <mxPoint x="90" y="540" as="sourcePoint" />
            <mxPoint x="110" y="510" as="targetPoint" />
          </mxGeometry>
        </mxCell>
        <mxCell id="pvuX36Qv3YyejVooDSa5-3" value="" style="edgeStyle=elbowEdgeStyle;elbow=horizontal;endArrow=none;html=1;curved=1;endSize=8;startSize=8;endFill=0;entryX=1;entryY=0.5;entryDx=0;entryDy=0;strokeOpacity=100;shadow=0;strokeColor=default;strokeWidth=1.2;" edge="1" parent="1" target="21pwXV84BtVsFDL-WHwK-5">
          <mxGeometry width="50" height="50" relative="1" as="geometry">
            <mxPoint x="460" y="540" as="sourcePoint" />
            <mxPoint x="450" y="510" as="targetPoint" />
          </mxGeometry>
        </mxCell>
        <mxCell id="pvuX36Qv3YyejVooDSa5-4" value="" style="edgeStyle=elbowEdgeStyle;elbow=horizontal;endArrow=none;html=1;curved=1;endSize=8;startSize=8;endFill=0;strokeOpacity=100;shadow=0;strokeColor=default;strokeWidth=1.2;entryX=1;entryY=0.5;entryDx=0;entryDy=0;" edge="1" parent="1" target="21pwXV84BtVsFDL-WHwK-2">
          <mxGeometry width="50" height="50" relative="1" as="geometry">
            <mxPoint x="270" y="540" as="sourcePoint" />
            <mxPoint x="270" y="510" as="targetPoint" />
          </mxGeometry>
        </mxCell>
      </root>
    </mxGraphModel>
  </diagram>
</mxfile>
